<?xml version="1.0" encoding="UTF-8" standalone="no"?>
<!-- Created with Inkscape (http://www.inkscape.org/) -->

<svg
   version="1.1"
   id="svg2"
   width="1889.7638"
   height="2213.5671"
   viewBox="0 0 1889.7638 2213.5671"
   sodipodi:docname="froala_1594968860269-head.png"
   inkscape:version="1.1.1 (eb90963e84, 2021-10-02)"
   xmlns:inkscape="http://www.inkscape.org/namespaces/inkscape"
   xmlns:sodipodi="http://sodipodi.sourceforge.net/DTD/sodipodi-0.dtd"
   xmlns="http://www.w3.org/2000/svg"
   xmlns:svg="http://www.w3.org/2000/svg">
  <defs
     id="defs6">
    <inkscape:path-effect
       effect="bspline"
       id="path-effect3763"
       is_visible="true"
       lpeversion="1"
       weight="33.333333"
       steps="2"
       helper_size="0"
       apply_no_weight="true"
       apply_with_weight="true"
       only_selected="false" />
  </defs>
  <sodipodi:namedview
     id="namedview4"
     pagecolor="#ffffff"
     bordercolor="#666666"
     borderopacity="1.0"
     inkscape:pageshadow="2"
     inkscape:pageopacity="0.0"
     inkscape:pagecheckerboard="0"
     showgrid="false"
     inkscape:zoom="0.22627417"
     inkscape:cx="324.82718"
     inkscape:cy="1255.1145"
     inkscape:window-width="1600"
     inkscape:window-height="863"
     inkscape:window-x="1464"
     inkscape:window-y="0"
     inkscape:window-maximized="1"
     inkscape:current-layer="g8" />
  <g
     inkscape:groupmode="layer"
     inkscape:label="Image"
     id="g8"
     transform="translate(-229.29426,-68.469447)">
    <g
       id="g9115"
       inkscape:export-filename="/home/sedelpeuch/Téléchargements/g9115.png"
       inkscape:export-xdpi="96"
       inkscape:export-ydpi="96">
      <path
         id="rect1158"
         style="fill:#ffffff;fill-opacity:1;stroke:#000000;stroke-width:3.77952756;stroke-opacity:1;stroke-miterlimit:4;stroke-dasharray:none"
         d="m 559.95822,1412.3056 c 120.14195,-90.3485 1053.96008,97.2213 1126.56188,213.7807 72.6018,116.5595 15.9299,488.3912 -97.8781,614.6534 -113.8081,126.2621 -1089.03912,-67.0609 -1147.18961,-177.7875 -81.13972,-154.5013 -1.63612,-560.298 118.50583,-650.6466 z"
         sodipodi:nodetypes="zzzsz" />
      <path
         id="path2770"
         style="fill:#000000;fill-opacity:1;stroke:none;stroke-width:1.76467;stroke-opacity:1"
         d="m 1053.7542,1802.9937 c 0,110.4452 -106.28947,210.4562 -221.31491,210.4562 -115.02544,0 -200.22353,-105.8854 -200.22353,-216.3306 0,-110.4452 100.87833,-212.2719 215.90377,-212.2719 115.02544,0 205.63467,107.7011 205.63467,218.1463 z"
         sodipodi:nodetypes="sssss" />
      <ellipse
         style="fill:#000000;fill-opacity:1;stroke:none;stroke-width:2.04359;stroke-opacity:1"
         id="path3372"
         cx="1378.5188"
         cy="1892.7253"
         rx="129.98143"
         ry="133.60626" />
      <path
         style="fill:#000000;fill-opacity:1;stroke:none;stroke-width:4.66903px;stroke-linecap:butt;stroke-linejoin:miter;stroke-opacity:1"
         d="m 506.9594,1474.2327 c 0,0 -49.91866,-306.8808 -42.28395,-309.4368 10.07516,-3.373 47.74088,-9.0416 47.74088,-9.0416 6.58011,5.8897 72.61113,242.7445 72.61113,242.7445"
         id="path3798"
         sodipodi:nodetypes="cssc" />
      <path
         style="fill:#000000;fill-opacity:1;stroke:none;stroke-width:4.66903px;stroke-linecap:butt;stroke-linejoin:miter;stroke-opacity:1"
         d="M 472.68928,1160.5109 C 253.72921,160.22979 266.57792,215.51689 256.28154,165.12947 c -0.67813,-3.31864 -9.13141,4.96831 -10.01858,1.69932 -6.60882,-24.35251 -19.82722,-58.60519 -16.41551,-88.371318 0.94188,-8.217731 35.75725,-14.03751 39.7532,-6.484718 13.83891,26.157212 19.38357,60.471236 21.44672,86.147916 0.23112,2.87637 -8.6322,-0.46565 -8.3168,2.40273 1.91528,17.41867 219.46413,994.5883 219.46413,994.5883"
         id="path4141"
         sodipodi:nodetypes="cssssssc" />
      <path
         style="fill:#000000;fill-opacity:1;stroke:none;stroke-width:4.66903px;stroke-linecap:butt;stroke-linejoin:miter;stroke-opacity:1"
         d="m 1448.1281,1513.592 c 0,0 110.7198,-165.5862 117.7035,-167.6509 6.9837,-2.0647 39.9053,14.8546 40.6297,24.3243 0.7243,9.4697 -76.4219,168.7089 -76.4219,168.7089"
         id="path6213"
         sodipodi:nodetypes="czzc" />
      <path
         style="fill:#000000;fill-opacity:1;stroke:none;stroke-width:4.66903px;stroke-linecap:butt;stroke-linejoin:miter;stroke-opacity:1"
         d="m 1578.5371,1350.7317 c 463.457,-822.50892 311.8466,-548.34415 467.1645,-822.85933 2.1199,-3.74685 -11.0145,-0.7181 -9.6248,-3.88673 9.8452,-22.44712 40.7857,-68.20721 46.1601,-74.21891 5.3744,-6.01171 35.9704,10.00559 36.8072,15.20017 0.8368,5.19457 -36.2287,67.48906 -41.0949,74.7219 -2.0562,3.0563 -8.6757,-6.82528 -10.5985,-3.12951 -49.2985,94.75377 -465.0395,825.62051 -465.0395,825.62051"
         id="path6537"
         sodipodi:nodetypes="csszzssc" />
    </g>
  </g>
</svg>
